<svg fill="none" xmlns="http://www.w3.org/2000/svg">
    <path fill="#fff" d="M0 0h33v12H0z"/>
    <path d="M10.656 10.55c.004 0 .008-.006.008-.006a.486.486 0 0 0 .092-.088c-.004 0-.008 0-.012-.006a1.79 1.79 0 0 0-.088.1Zm4.414-1.487-.07.06c.04-.01.07-.02.07-.06Z" fill="#000091"/>
    <path fill-rule="evenodd" clip-rule="evenodd" d="M13.643 10.582c.127-.129.255-.265.383-.405h-.004c.24-.273.473-.534.752-.772.085-.078.166-.144.244-.199.011-.011.017-.028.023-.045.005-.017.011-.034.023-.044-.055.02-.099.054-.143.088-.046.034-.092.07-.151.091-.023 0-.047-.023-.023-.047.08-.058.162-.12.24-.183h-.016c-.023 0-.023-.023-.023-.047-.288-.045-.51.152-.708.328l-.013.011c-.03.016-.06 0-.082-.012a.076.076 0 0 0-.03-.011c-.175.059-.326.167-.479.276-.14.1-.281.202-.443.266V9.83a1.757 1.757 0 0 0-.163.068c-.08.036-.16.073-.243.092-.152.035-.293.03-.429.026a3.98 3.98 0 0 0-.133-.003 6.535 6.535 0 0 0-.738.13l-.08.018a.06.06 0 0 1-.011.004 1.69 1.69 0 0 0-.43.175l-.016.008-.015.02a.524.524 0 0 1-.17.156 1.257 1.257 0 0 0-.264.198c-.036.032-.072.064-.108.094a.06.06 0 0 1-.035.011c-.12.117-.24.234-.364.347-.008.008-.043.012-.07.008 0 0 .004 0 .004-.004l.011-.024.059-.093.033-.053c.01-.017.02-.035.032-.052.031-.047.063-.094.097-.137.008-.011.008-.023 0-.03a.044.044 0 0 0-.03-.012c.112-.11.243-.203.379-.285v-.004c-.016.004-.039-.008-.027-.023.011-.014.02-.03.03-.046l.008-.017c.003-.003.003-.006.004-.01l.004-.009-.008-.01c-.002-.003-.005-.005-.007-.01l-.024.016a.403.403 0 0 0-.13.114c-.036.045-.073.093-.129.093-.004 0-.023 0-.035-.004-.011 0-.02-.004-.023-.008v-.004h.004s.004-.004.004-.008c0 0 0-.004.004-.004a.102.102 0 0 1 .005-.01.083.083 0 0 0 .006-.01.08.08 0 0 1 .006-.009l.006-.01a.019.019 0 0 0 .004-.007c0-.003.002-.006.003-.008l.005-.008.011-.023.006-.01a.071.071 0 0 0 .006-.01.215.215 0 0 0 .015-.025l.016-.026c.004-.007.007-.015.015-.023l.012-.021.011-.022c.012-.02 0-.035-.015-.039a.522.522 0 0 1 .155-.136h-.008c.053-.027.109-.058.163-.09l.097-.054a.15.15 0 0 1 .038-.031 1.39 1.39 0 0 0-.356.179s-.031.012-.039.02c0 0-.023.007-.054-.02-.004-.004-.004-.008-.004-.016a.186.186 0 0 1 .071-.064.37.37 0 0 0 .065-.049c.023 0 .042 0 .042.024.446-.35.997-.431 1.548-.512.34-.05.68-.1.997-.213l.1-.068.102-.068a.708.708 0 0 0 .16-.107.96.96 0 0 1 .177-.12c.178-.136.313-.292.383-.521 0-.024-.023-.047-.023-.047a3.563 3.563 0 0 1-.992.748c-.343.181-.711.208-1.076.235-.137.01-.273.02-.407.038.023-.047.07-.047.112-.047 0-.055.026-.08.06-.11l.03-.027h.065c.012 0 .017-.011.023-.023.006-.012.012-.023.023-.023.047 0 .113-.024.09-.024-.036-.045-.088-.027-.145-.007-.054.019-.114.04-.17.007.021-.022.027-.05.033-.074.006-.026.012-.05.034-.062h.089c0-.047.046-.09.046-.09.202-.121.397-.227.589-.331.128-.07.254-.138.38-.21a.166.166 0 0 0-.07.02c-.035.017-.068.032-.109.003.024 0 .024-.016.024-.033 0-.016 0-.033.023-.033.145-.039.274-.102.407-.166.093-.045.188-.091.29-.13a.305.305 0 0 0-.086.016c-.053.015-.103.03-.162-.016.016-.008.028-.018.04-.027.025-.02.05-.04.096-.04v-.066c0-.023.023-.023.046-.023-.023 0-.046-.023-.046-.023.012-.025.036-.03.063-.036.024-.005.05-.01.072-.03-.023 0-.066 0-.066-.024.066-.09.179-.113.291-.136-.012-.024-.034-.024-.053-.024-.02 0-.036 0-.036-.023s.023-.023.046-.023h-.046c-.036-.019-.03-.052-.026-.074l.003-.016c.09-.107.12-.234.15-.36.015-.061.03-.123.051-.182-.023 0-.046 0-.046-.023-.218.242-.563.333-.891.42l-.031.009h-.113a.444.444 0 0 1-.383-.024.61.61 0 0 1-.133-.1 1.133 1.133 0 0 0-.092-.079 2.775 2.775 0 0 0-.561-.273 5.043 5.043 0 0 0-1.732-.25c.163-.089.337-.125.513-.16.09-.02.182-.038.273-.065l.172-.052c.32-.098.633-.194.975-.174a.377.377 0 0 0-.155-.005.606.606 0 0 1-.07.005c-.259-.02-.52.038-.793.098l-.175.038c-.107.023-.208.055-.31.087-.112.035-.225.07-.345.093a.509.509 0 0 0-.134.078c-.065.048-.128.093-.226.081v-.07c.225-.273.496-.541.856-.565.348-.056.677-.016 1.02.026l.173.021c.281.023.544.085.827.153l.03.007c.061 0 .096.054.13.107.027.043.054.085.094.095.055.02.11.023.165.026.08.006.161.01.242.064a.272.272 0 0 0-.006-.046c-.005-.03-.01-.06.006-.09.05-.05.107-.037.163-.024.044.01.088.02.127 0 .123-.076.008-.193-.107-.31-.056-.057-.112-.113-.14-.165 0-.024.022-.047.022-.047.051.046.099.093.146.14.117.117.232.231.393.312.112.047.383.113.337-.023-.08-.177-.216-.33-.353-.485a5.375 5.375 0 0 1-.166-.193v-.09c-.036 0-.044-.013-.055-.03a.14.14 0 0 0-.011-.017v-.09c-.057-.029-.07-.076-.082-.124-.008-.027-.015-.054-.03-.078-.04-.063-.042-.14-.045-.22a.657.657 0 0 0-.025-.189 2.315 2.315 0 0 1-.09-.386 9.584 9.584 0 0 0-.08-.403c-.047-.23-.093-.452-.12-.684-.036-.33.13-.61.301-.896.05-.084.102-.17.148-.257.159-.273.337-.541.631-.725.064-.266.24-.487.413-.707l.013-.017c.172-.214.459-.345.67-.441L14.96.23c.313-.14.596-.23.6-.23H0v11.996h11.04c.295-.214.588-.35.938-.51a17.12 17.12 0 0 0 .658-.315c.315-.155.817-.402 1.007-.59ZM10.14 8.963c-.044.005-.09.01-.073-.026.016-.079.097-.102.176-.125a.587.587 0 0 0 .095-.034l.013-.007.009-.005c.043-.023.097-.051.136-.035.027.038.06.048.092.057a.158.158 0 0 1 .067.033c-.084.084-.181.092-.28.1-.066.006-.133.012-.196.04a.43.43 0 0 0-.04.002Zm-3.427-.548c0 .024.023.047.023.047.542-.612 1.034-1.134 1.731-1.566.019-.008.012.002.003.015-.014.02-.033.046.02.032.231-.053.335-.25.436-.443.026-.05.052-.1.08-.146.106-.172.256-.282.407-.393.11-.08.22-.16.313-.265 0 .023 0 .047-.023.07.023.023.046.023.07.023a.368.368 0 0 1 .128-.055c.054-.016.106-.03.143-.08-.178-.071-.407-.094-.585-.024-.473.226-.875.588-1.259.997-.232.246-.472.475-.767.635a6.926 6.926 0 0 1-.72 1.153Zm1.89-1.449a.18.18 0 0 1-.035.05.151.151 0 0 0-.03.04.181.181 0 0 1-.09.09c-.022 0-.046 0-.046-.024.024-.09.09-.179.178-.202.024.004.024.027.024.046Zm.991 3.46a.29.29 0 0 0 .054-.066c.02-.047-.1-.035-.12-.023a.256.256 0 0 0-.042.045l-.004.005a.645.645 0 0 1-.054.054l-.039.036a3.23 3.23 0 0 1-.166.16c-.039.035.085.05.112.027a.778.778 0 0 0 .085-.078c.01 0 .02-.002.028-.003h.007c.064-.022.112-.067.158-.11l.012-.012c.016-.015-.004-.03-.03-.035Zm-.35-.253h-.001v.004a5.552 5.552 0 0 0-.071.05c-.06.042-.12.085-.185.121a2.97 2.97 0 0 1-.188.095 5.488 5.488 0 0 0-.11.053s0-.004-.004-.004c-.008-.011-.023-.015-.039-.007a1 1 0 0 0-.225.175.118.118 0 0 0-.03.031l-.035.035v.004a.58.58 0 0 0-.05.055.121.121 0 0 0-.01.012c-.007.007-.012.014-.022.019-.015.008-.054.008-.05-.016v-.004a.18.18 0 0 1-.039.02l-.017.01a.153.153 0 0 0-.018.01c-.004-.005-.011-.005-.015-.005s-.012 0-.016.004l-.027.023a1.514 1.514 0 0 0-.186.188s0 .004-.004.004c0 .002 0 .002-.002.003l-.002.004-.007.008a.021.021 0 0 0-.003.004c-.002.002-.003.004-.005.004l-.004.004a.081.081 0 0 1-.015.023.03.03 0 0 1-.02.008c-.004-.004-.008-.008-.008-.012l-.003-.005a.02.02 0 0 0-.004-.006l-.01-.018a.16.16 0 0 0-.01-.018v-.003c0-.002 0-.004-.002-.006a.014.014 0 0 1-.002-.006l.07-.082.004-.004a.164.164 0 0 0 .012-.013l.011-.014a.411.411 0 0 1 .02-.023l.02-.024.005-.01a2.06 2.06 0 0 0 .076-.107v-.004c.003-.003.007-.007.007-.015a.317.317 0 0 0 .031-.047l.023-.047v-.004l.004-.003.002-.004.002-.004.012-.027a.68.68 0 0 0 .011-.028v-.004l.004-.015a.053.053 0 0 0 .004-.012.056.056 0 0 1 .004-.012v-.004a.114.114 0 0 0 .004-.017.115.115 0 0 1 .004-.018c0-.004 0-.011-.004-.015a.648.648 0 0 1 .089-.121.013.013 0 0 0-.006.002.025.025 0 0 1-.003.002h-.003a.295.295 0 0 0-.047.04c-.012.012-.024.024-.038.034-.023.02-.07-.012-.039-.035a.458.458 0 0 0 .05-.047s0-.004.005-.004l.045-.046a.529.529 0 0 1 .07-.067 1.095 1.095 0 0 0 .082-.062c.016-.02.031-.039.05-.059 0 0 .004 0 .004-.003.133-.13.32-.175.511-.221.12-.03.242-.06.353-.11.063-.027.133-.016.202-.006a.446.446 0 0 0 .158.005c.066 0 .136 0 .202.047-.153.082-.3.175-.444.267l-.126.08h-.002Zm.484-1.588c-.018.002-.03.004-.02.014.066.066.202.043.295-.008.066-.047.135-.047.224-.047.024 0 .024-.043.024-.066.065.023.112.023.178.023.538-.113 1.057-.226 1.553-.475-.502-.388-1.12-.56-1.726-.73l-.3-.084c.022 0 .044.007.066.014.044.015.089.03.136-.014-.062-.05-.13-.059-.198-.068a.419.419 0 0 1-.163-.045c.006 0 .012 0 .019.002.023.005.052.01.07-.026-.117-.059-.235-.079-.354-.1-.06-.01-.122-.02-.184-.036a.222.222 0 0 0 .182-.226c0-.023-.046-.023-.07-.023-.267.136-.449.385-.561.677.101.06.21.053.317.046a.862.862 0 0 1 .178.001c-.05.048-.124.062-.194.074l-.077.016c-.07.015-.135.066-.112.113.016.02.031.027.05.031a.322.322 0 0 0-.14.082c.065.05.13.04.195.03a.53.53 0 0 1 .077-.007c0 .028.019.038.038.048.01.005.02.01.028.018a.405.405 0 0 0-.225.203.417.417 0 0 1-.13.155c-.034.03-.068.058-.094.094v.07a4.2 4.2 0 0 1-.228.184c-.156.12-.307.237-.427.405.023 0 .023.023.023.047-.021.032-.052.054-.08.076-.034.024-.066.048-.079.083 0 .024 0 .047.024.047.142-.047.265-.126.385-.204.11-.07.217-.139.335-.182.096-.023.18-.067.262-.11.07-.035.138-.07.21-.092.057-.012.119-.029.18-.045.063-.017.125-.033.18-.045 0 .024 0 .047.024.047h.178c-.01.026-.045.03-.069.033Z" fill="#000091"/>
    <path d="M33 0H20.097s.023.004.12.055c.106.054.242.128.324.171.168.086.328.195.433.363.047.066.113.203.07.293-.046.113-.07.296-.183.34-.136.07-.316.07-.476.046-.09 0-.18-.024-.273-.047.34.137.66.297.886.613.023.046.113.066.203.066.023 0 .023.047.023.066-.047.047-.09.07-.066.137h.066c.113-.047.09-.273.25-.203.113.066.16.226.09.34-.09.089-.18.16-.274.226a.191.191 0 0 0 0 .16c.067.09.09.179.113.273.07.16.09.339.16.499.09.34.18.679.16 1.022 0 .18-.09.34-.023.523.047.18.16.316.25.476.09.136.179.226.25.363.136.226.385.452.272.725-.066.16-.316.137-.476.226-.136.114-.023.297.047.41.113.203-.136.34-.296.41.047.07.136.046.16.09.023.113.136.179.066.296-.09.136-.363.203-.226.41.09.16.03.335-.024.499-.066.203-.25.292-.41.34a.894.894 0 0 1-.428.023c-.047-.024-.09-.047-.137-.047-.386-.047-.772-.156-1.155-.156-.113.023-.226.043-.316.09a1.83 1.83 0 0 0-.273.241l-.003.004c-.016.02-.036.035-.051.055-.008.012-.02.023-.027.035-.008.008-.012.016-.02.023a2.385 2.385 0 0 0-.191.277c-.004.012-.012.02-.02.032a2.242 2.242 0 0 0-.171.417c-.156.519-.086.964.023 1.073.031.031.75.253 1.248.476.234.105.398.183.535.269h12.67V0H33Z" fill="#E1000F"/>
    <path d="M20.863 4.375c.09.023.226.023.226.07-.047.18-.315.226-.451.409h-.07c-.067.047-.047.16-.113.16-.066-.024-.136 0-.203.023.09.09.203.16.339.136.023 0 .066.047.066.09 0 0 .023 0 .047-.023.023 0 .046 0 .046.023v.09c-.066.09-.183.046-.272.066a.985.985 0 0 0 .521 0c.137-.047 0-.273.09-.386-.047 0 0-.07-.047-.07.047-.047.09-.113.136-.136.047 0 .113-.024.136-.07 0-.047-.09-.067-.07-.113.137-.09.25-.226.203-.363-.024-.07-.203-.07-.315-.113-.113-.043-.25 0-.386.024-.112 0-.225.07-.338.09-.16.046-.296.136-.428.225.16-.066.315-.09.498-.136.136.004.249-.027.385.004" fill="gray"/>
    <path d="M1.236 27H2.94v-6.024l1.872 3.144h1.2l1.872-3.144V27h1.704v-8.4H7.464l-2.052 3.528L3.36 18.6H1.236V27Zm10.876 0h1.704v-8.4h-1.704V27Zm4.232 0h1.704v-6.072L21.804 27h2.184v-8.4h-1.704v6.072L18.528 18.6h-2.184V27Zm10.173 0h1.704v-8.4h-1.704V27Zm3.476-1.164c.744.888 1.692 1.404 3.108 1.404 1.548 0 2.772-.948 2.796-2.532 0-2.88-3.816-2.448-3.816-3.972 0-.504.396-.888.996-.888.636 0 1.188.42 1.68 1.056l1.248-1.128c-.72-.852-1.68-1.416-2.94-1.416-1.608 0-2.712 1.104-2.712 2.436 0 2.844 3.816 2.424 3.816 3.972 0 .6-.408.96-1.08.96-.684 0-1.356-.384-1.86-1.032l-1.236 1.14Zm6.948-5.688h2.592V27h1.704v-6.852h2.593V18.6h-6.89v1.548Zm10.257-2.268h1.56l-1.356-1.62H45.65l1.548 1.62ZM45.506 27h4.896v-1.416H47.21v-2.16h2.712v-1.416H47.21v-1.992h3.192V18.6h-4.896V27Zm7.056 0h1.704v-3.396h.876L57.386 27h2.004l-2.628-3.72c.864-.396 1.356-1.152 1.356-2.172 0-1.56-1.14-2.508-2.988-2.508h-2.568V27Zm2.664-6.984c.72 0 1.14.432 1.14 1.068 0 .684-.42 1.104-1.14 1.104h-.96v-2.172h.96ZM60.65 27h4.896v-1.416h-3.192v-2.16h2.712v-1.416h-2.712v-1.992h3.192V18.6H60.65V27ZM1.236 39h3.3C7.2 39 9 37.068 9 34.8c0-2.268-1.8-4.2-4.464-4.2h-3.3V39Zm3.324-6.852c1.56 0 2.688 1.152 2.688 2.652 0 1.488-1.128 2.652-2.688 2.652H2.94v-5.304h1.62Zm11.217 3.708c0 1.128-.648 1.788-1.692 1.788-1.068 0-1.704-.66-1.704-1.788V30.6h-1.704v5.112c0 2.208 1.296 3.528 3.396 3.528 2.112 0 3.408-1.32 3.408-3.528V30.6h-1.704v5.256Zm6.431-3.708H24.8V39h1.704v-6.852h2.592V30.6h-6.888v1.548ZM30.773 39h1.704v-3.396h.876L35.597 39H37.6l-2.628-3.72c.864-.396 1.356-1.152 1.356-2.172 0-1.56-1.14-2.508-2.988-2.508h-2.568V39Zm2.664-6.984c.72 0 1.14.432 1.14 1.068 0 .684-.42 1.104-1.14 1.104h-.96v-2.172h.96ZM38.167 39h1.813l.803-2.184h3.36L44.948 39h1.813l-3.18-8.4h-2.233l-3.18 8.4Zm3.145-3.636 1.152-3.156 1.151 3.156h-2.303Zm5.13-4.764 3.18 8.4h2.232l3.18-8.4h-1.812l-2.484 6.564-2.484-6.564h-1.812Zm8.275 8.4h1.812l.804-2.184h3.36L61.497 39h1.812l-3.18-8.4h-2.232l-3.18 8.4Zm3.144-3.636 1.152-3.156 1.152 3.156h-2.304ZM64.786 39h1.704v-8.4h-1.704V39Zm4.232 0h4.896v-1.548h-3.192V30.6h-1.704V39Zm7.605 1.92 1.392-3.588h-1.716l-1.092 3.588h1.416ZM1.236 51h3.3C7.2 51 9 49.068 9 46.8c0-2.268-1.8-4.2-4.464-4.2h-3.3V51Zm3.324-6.852c1.56 0 2.688 1.152 2.688 2.652 0 1.488-1.128 2.652-2.688 2.652H2.94v-5.304h1.62Zm11.217 3.708c0 1.128-.648 1.788-1.692 1.788-1.068 0-1.704-.66-1.704-1.788V42.6h-1.704v5.112c0 2.208 1.296 3.528 3.396 3.528 2.112 0 3.408-1.32 3.408-3.528V42.6h-1.704v5.256ZM23.072 51h1.704v-3.396h1.068c1.848 0 2.976-.948 2.976-2.496 0-1.56-1.128-2.508-2.976-2.508h-2.772V51Zm2.844-6.984c.72 0 1.152.432 1.152 1.068 0 .684-.432 1.104-1.152 1.104h-1.14v-2.172h1.14ZM30.41 51h4.896v-1.548h-3.192V42.6H30.41V51Zm6.575 0h4.896v-1.416H38.69v-2.16h2.712v-1.416H38.69v-1.992h3.192V42.6h-4.896V51Zm7.056 0h1.704v-8.4h-1.704V51Zm4.232 0h1.704v-6.072L53.733 51h2.184v-8.4h-1.704v6.072L50.457 42.6h-2.184V51Zm13.467 0h4.897v-1.416h-3.192v-2.16h2.712v-1.416h-2.712v-1.992h3.192V42.6H61.74V51Zm7.057 0H70.5v-6.024l1.872 3.144h1.2l1.872-3.144V51h1.704v-8.4h-2.124l-2.052 3.528L70.92 42.6h-2.124V51Zm10.876 0h1.704v-3.396h1.068c1.848 0 2.976-.948 2.976-2.496 0-1.56-1.128-2.508-2.976-2.508h-2.772V51Zm2.844-6.984c.72 0 1.152.432 1.152 1.068 0 .684-.432 1.104-1.152 1.104h-1.14v-2.172h1.14ZM87.01 51h4.897v-1.548h-3.192V42.6H87.01V51Zm10.016-8.64c-2.652 0-4.464 2.04-4.464 4.44 0 2.4 1.812 4.44 4.464 4.44 2.64 0 4.452-2.04 4.452-4.44 0-2.4-1.812-4.44-4.452-4.44Zm0 7.284c-1.584 0-2.712-1.236-2.712-2.844 0-1.608 1.128-2.844 2.712-2.844 1.572 0 2.7 1.236 2.7 2.844 0 1.608-1.128 2.844-2.7 2.844ZM103.291 51h1.704v-8.4h-1.704V51ZM1.236 63h4.896v-1.416H2.94v-2.16h2.712v-1.416H2.94v-1.992h3.192V54.6H1.236V63Zm6.368-6.852h2.592V63H11.9v-6.852h2.592V54.6H7.604v1.548ZM19.463 63h3.3c2.664 0 4.464-1.932 4.464-4.2 0-2.268-1.8-4.2-4.464-4.2h-3.3V63Zm3.324-6.852c1.56 0 2.688 1.152 2.688 2.652 0 1.488-1.128 2.652-2.688 2.652h-1.62v-5.304h1.62ZM29.05 63h4.896v-1.416h-3.192v-2.16h2.712v-1.416h-2.712v-1.992h3.192V54.6H29.05V63Zm10.35 0h4.897v-1.548h-3.192V54.6H39.4V63Zm6.894-4.944.18-3.456H44.77l.192 3.456h1.332ZM48.532 63h1.704v-8.4h-1.704V63Zm4.232 0h1.704v-6.072L58.224 63h2.184v-8.4h-1.704v6.072L54.948 54.6h-2.184V63Zm9.417-1.164c.745.888 1.693 1.404 3.109 1.404 1.547 0 2.771-.948 2.795-2.532 0-2.88-3.816-2.448-3.816-3.972 0-.504.396-.888.996-.888.636 0 1.189.42 1.68 1.056l1.249-1.128c-.72-.852-1.68-1.416-2.94-1.416-1.609 0-2.713 1.104-2.713 2.436 0 2.844 3.817 2.424 3.817 3.972 0 .6-.409.96-1.08.96-.684 0-1.357-.384-1.86-1.032l-1.236 1.14ZM70.052 63h4.896v-1.416h-3.192v-2.16h2.712v-1.416h-2.712v-1.992h3.192V54.6h-4.896V63Zm7.056 0h1.704v-3.396h.876L81.932 63h2.004l-2.628-3.72c.864-.396 1.356-1.152 1.356-2.172 0-1.56-1.14-2.508-2.988-2.508h-2.568V63Zm2.664-6.984c.72 0 1.14.432 1.14 1.068 0 .684-.42 1.104-1.14 1.104h-.96v-2.172h.96Zm4.185.132h2.592V63h1.704v-6.852h2.592V54.6h-6.888v1.548ZM92.521 63h1.704v-8.4h-1.704V63Zm7.976-8.64c-2.652 0-4.464 2.04-4.464 4.44 0 2.4 1.812 4.44 4.464 4.44 2.64 0 4.452-2.04 4.452-4.44 0-2.4-1.812-4.44-4.452-4.44Zm0 7.284c-1.584 0-2.712-1.236-2.712-2.844 0-1.608 1.128-2.844 2.712-2.844 1.572 0 2.7 1.236 2.7 2.844 0 1.608-1.128 2.844-2.7 2.844ZM106.762 63h1.704v-6.072L112.222 63h2.184v-8.4h-1.704v6.072l-3.756-6.072h-2.184V63Z" fill="#161616"/>
    <path fill-rule="evenodd" clip-rule="evenodd" d="m31.18 84.614-1.116 1.02h-.288l.66-1.164h.744v.144Zm-.804 3.947h-.24c-.3.36-.636.648-.96.648-.336 0-.504-.204-.504-.648 0-.18.024-.372.06-.54l1.956-.647c.384-.912-.072-1.308-.612-1.308-.924 0-1.98 1.62-1.98 2.915 0 .612.288.948.744.948.528-.012 1.08-.528 1.536-1.368Zm-.671-1.967c.264 0 .492.204.372.672l-1.213.324c.192-.576.552-.996.84-.996Zm-3.816.024h.648l-1.032 2.831c-.096.24.036.48.288.48.732 0 1.608-.624 1.944-1.512h-.18c-.264.372-.84.78-1.272.852l.948-2.651h.972l.12-.408h-.948l.36-1.02h-.372l-.672 1.02-.804.108v.3Zm-.901-.54c.132 0 .312.144.228.408l-1.164 2.82c.3-.048.612-.336.792-.6h.192c-.276.708-.9 1.224-1.44 1.224-.132 0-.325-.144-.229-.408l1.08-2.82c-.3.048-.611.336-.791.6h-.18c.276-.72.948-1.224 1.512-1.224Zm.337-.72a.443.443 0 1 0 0-.888.443.443 0 1 0 0 .888Zm-5.245 2.34c.264-.576.168-.84 0-.84-.144 0-.312.156-.48.444h-.18c.276-.612.636-1.224 1.032-1.224.336 0 .456.336.456.708v.528l.158-.185.002-.002c.506-.595.894-1.049 1.34-1.049.348 0 .528.216.528.54 0 .192-.06.432-.192.684l-.996 2.004c.3-.048.612-.336.792-.6h.18c-.276.72-.948 1.224-1.512 1.224-.252 0-.396-.264-.288-.48l1.152-2.22c.132-.252.156-.42-.048-.42-.276 0-.924.456-1.272.876l-.756 1.992c-.084.204-.168.252-.36.252-.312 0-.468-.204-.324-.528l.768-1.704Zm-.781-.768c.132-.457.06-.865-.288-.865-.434 0-.57.287-.991 1.174l-.03.063v-.529c0-.371-.12-.707-.456-.707-.396 0-.756.611-1.032 1.224h.18c.192-.277.372-.445.516-.445.168 0 .264.264 0 .84l-.768 1.704c-.144.324.012.528.324.528.192 0 .276-.048.36-.252l.756-1.992c.216-.264.409-.492.649-.743h.78Zm-3.793.336c.12-.468-.108-.672-.372-.672-.288 0-.648.42-.84.996l1.212-.324Zm.3 1.295h-.24c-.3.36-.636.648-.96.648-.336 0-.505-.204-.505-.648 0-.18.024-.372.06-.54l1.957-.647c.384-.912-.072-1.308-.612-1.308-.925 0-1.98 1.62-1.98 2.915 0 .612.287.948.744.948.528-.012 1.08-.528 1.536-1.368Zm-3.84-1.944h-.648v-.3l.805-.107.672-1.02h.372l-.36 1.02h.948l-.12.408h-.972l-.949 2.651c.432-.072 1.009-.48 1.273-.852h.18c-.336.888-1.213 1.512-1.945 1.512-.252 0-.384-.24-.288-.48l1.033-2.831Zm-4.08 2.197c0-.876.973-2.052 1.513-2.052.12 0 .24.012.336.048l-.564 1.512c-.324.396-.828.876-1.068.876-.133 0-.217-.12-.217-.384Zm2.677-2.928.3.024-1.044 2.4c-.252.576-.144.84 0 .84s.324-.168.516-.444h.18c-.276.612-.636 1.224-1.032 1.224-.336 0-.54-.36-.48-1.008l.024-.228-.065.091c-.43.6-.82 1.145-1.22 1.145-.347 0-.527-.216-.527-.54 0-1.392 1.524-3.168 2.952-3.168h.06l.336-.336ZM7.814 86.93c.132-.457.06-.865-.288-.865-.434 0-.57.287-.99 1.174l-.03.063v-.529c0-.371-.12-.707-.456-.707-.396 0-.756.611-1.032 1.224h.18c.192-.277.372-.445.504-.445.168 0 .264.264 0 .84l-.768 1.716c-.144.324.012.528.324.528.192 0 .276-.048.36-.252l.756-1.992c.216-.264.408-.492.648-.743h.792v-.012Zm-4.946 2.639-.072.216H0l.072-.228c.864-.156 1.008-.228 1.368-1.2l.78-2.088c.348-.972.276-1.044-.48-1.2l.072-.216H5.45l-.216 1.164H4.97c0-.696-.072-.876-.732-.876H4.07c-.648 0-.733.096-.913.6l-.516 1.404h.756c.505 0 .697-.312.925-.72h.264l-.624 1.704h-.264c.06-.516.06-.72-.409-.72h-.756l-.348.96c-.376.999-.268 1.02.627 1.189l.057.01Zm2.377-14.135-1.116.805v.011H3.84l.66-.96h.744v.144Zm7.802 5.63 1.788-4.754-.06-.072-1.236.144v.144l.24.18c.205.16.151.309-.019.775l-.029.078-1.368 3.65c-.108.216.036.48.288.48.564 0 1.164-.516 1.44-1.224h-.18c-.192.264-.576.552-.864.6Zm8.197-3.661 1.116-1.02v-.145h-.744l-.66 1.165h.288Zm.071 2.917h.24c-.444.853-.996 1.37-1.524 1.37-.456 0-.744-.337-.744-.95 0-1.296 1.056-2.917 1.98-2.917.528 0 .996.396.612 1.309l-1.968.648c-.036.168-.06.36-.06.54 0 .445.168.649.504.649.324 0 .66-.288.96-.649Zm-.06-1.296c.12-.456-.109-.66-.373-.66-.276 0-.636.42-.84.984l1.212-.324Zm-3.53-.637h-.647v-.3l.804-.108.672-1.02h.372l-.36 1.02h.948l-.12.408h-.972l-.948 2.653c.432-.072 1.008-.48 1.272-.852h.18c-.336.888-1.212 1.513-1.944 1.513-.252 0-.384-.24-.288-.48l1.032-2.834Zm-1.32-.144c.072-.264-.096-.408-.24-.408-.564 0-1.236.516-1.512 1.225h.18c.18-.265.492-.553.792-.6l-1.08 2.82c-.096.265.096.409.228.409.54 0 1.164-.516 1.44-1.225h-.18c-.18.264-.492.552-.792.6l1.165-2.82Zm.553-1.56a.45.45 0 0 1-.444.444.443.443 0 1 1 .444-.444Zm-6.06 1.848c-.54 0-1.512 1.177-1.512 2.053 0 .265.084.385.228.385.228 0 .733-.48 1.057-.877l.564-1.513a1.035 1.035 0 0 0-.336-.047Zm1.465-.852-.3-.024-.336.336h-.06c-1.428 0-2.952 1.777-2.952 3.17 0 .324.18.54.528.54.4 0 .789-.544 1.219-1.145l.065-.091-.024.228c-.06.648.144 1.008.48 1.008.396 0 .756-.612 1.032-1.224h-.18c-.192.276-.372.444-.516.444-.144 0-.252-.264 0-.84l1.044-2.402Zm-6.05 3.89c-.516.204-.876.444-.876.816 0 .349.324.493.997.493.9 0 1.392-.264 1.392-.612 0-.157-.204-.229-.744-.409a5.367 5.367 0 0 1-.768-.288Zm.6-1.477c-.24 0-.324-.204-.324-.42 0-.696.336-1.56.876-1.56.24 0 .324.204.324.42-.012.708-.348 1.56-.876 1.56Zm.457 1.129c.66.204 1.068.36 1.068.816 0 .588-1.08 1.285-2.388 1.273-.756 0-1.404-.204-1.404-.697 0-.468.432-.852 1.488-1.164a.422.422 0 0 1-.204-.384c0-.288.264-.516.72-.733-.444-.06-.732-.396-.732-.888 0-.756.624-1.62 1.608-1.62a.94.94 0 0 1 .528.143h1.08l-.12.408h-.636c.036.109.06.228.06.36 0 .733-.588 1.573-1.524 1.621-.24.133-.36.313-.36.457 0 .17.196.227.63.353l.186.055Zm-3.805-2.053c.468 0 .48.204.408.72h.264l.624-1.705h-.264c-.228.409-.42.72-.924.72H2.64l.505-1.404c.18-.504.264-.6.912-.6h.456c.66 0 .732.18.732.876h.264l.216-1.164H1.812l-.072.216c.756.156.828.228.48 1.2l-.78 2.101c-.36.973-.504 1.045-1.38 1.201l-.06.228h4.345l.78-1.237h-.3c-.504.493-1.008.949-1.993.949-1.082 0-1.063-.053-.738-.946l.066-.183.36-.96h1.045v-.012Zm3.585-10.28a.45.45 0 0 0 .444-.444.443.443 0 1 0-.888 0c0 .252.192.444.444.444Zm3.552 1.51c0-.575-.144-.791-.552-.791-.504 0-.971.54-1.44 1.187l1.008-2.698-.06-.084-1.235.144v.144l.24.18c.209.162.148.324-.03.802l-.018.05-1.092 2.854c-.096.24-.204.528-.204.6 0 .335.456.66.876.66.936.011 2.507-1.716 2.507-3.047Zm10.402-1.223 1.116-1.02v-.143h-.744l-.66 1.163h.288Zm.073 2.915h.24c-.457.852-1.008 1.367-1.536 1.355-.456 0-.744-.324-.744-.935 0-1.296 1.056-2.915 1.98-2.915.527 0 .995.396.611 1.307l-1.955.648c-.036.168-.06.36-.06.54 0 .444.168.648.504.648.324 0 .66-.288.96-.648Zm-.062-1.296c.12-.455-.108-.66-.372-.66-.287 0-.647.42-.84.984l1.212-.323Zm-3.54-.635h-.648v-.3l.804-.107.671-1.02h.372l-.36 1.02h.948l-.12.407h-.972l-.947 2.651c.432-.072 1.008-.48 1.271-.851h.18c-.335.887-1.211 1.511-1.943 1.511-.252 0-.384-.24-.288-.48l1.032-2.83Zm-.982.312c.132-.456.06-.863-.288-.863-.434 0-.57.286-.99 1.173l-.03.062v-.528c0-.371-.12-.707-.456-.707-.395 0-.755.611-1.031 1.223h.18c.192-.276.372-.444.504-.444.168 0 .264.264 0 .84l-.768 1.703c-.144.324.012.528.324.528.192 0 .276-.048.36-.252l.755-1.991c.216-.264.408-.492.648-.744h.792Zm-3.803.323c.12-.455-.108-.66-.372-.66-.288 0-.636.42-.84.984l1.212-.323Zm.3 1.296h-.24c-.3.36-.636.648-.96.648-.336 0-.504-.204-.504-.648 0-.18.024-.372.06-.54l1.955-.648c.384-.911-.072-1.307-.612-1.307-.923 0-1.98 1.62-1.98 2.915 0 .611.289.935.745.935.527.012 1.08-.503 1.535-1.355Zm-5.039.456c0 .156.276.336.468.336.78 0 1.512-1.403 1.5-2.183 0-.264-.132-.372-.312-.372-.288 0-.816.432-1.152.84l-.312.84c-.108.275-.192.491-.192.54Zm-1.26-2.938c.145 0 .313.144.24.407l-1.151 2.82c.3-.049.612-.337.792-.6h.18c-.276.707-.9 1.223-1.44 1.223-.144 0-.336-.144-.24-.408l1.08-2.819c-.3.048-.612.336-.792.6h-.18c.276-.707.948-1.223 1.512-1.223Zm-4.98-1.248h2.58l-.072.228c-.876.156-1.02.228-1.38 1.2l-.767 2.11c-.372 1.008-.276 1.128.383 1.128.816 0 1.35-.592 1.817-1.11l.103-.113h.3l-.852 1.511H0l.072-.216c.864-.156 1.008-.228 1.368-1.2l.78-2.122c.347-.972.276-1.044-.48-1.2l.072-.216Z" fill="#000"/>
</svg>
